<svg width="107" height="15" viewBox="0 0 172 24" fill="none" xmlns="http://www.w3.org/2000/svg">
<path d="M94.3551 23.9988L84.9786 0.00976562H80.4104L71.0947 23.9988H75.6629L77.7469 18.7129C79.2863 19.4771 80.9721 19.889 82.6948 19.889C84.4176 19.889 86.1786 19.4724 87.7474 18.6938L89.7876 23.9988H94.3558H94.3551ZM82.7297 16.2595C81.4715 16.2595 80.1696 16.0207 79.0407 15.4316L82.8132 5.86353L84.1952 9.41574L86.4783 15.3728C85.3241 16.0241 83.9859 16.3081 82.7304 16.2595H82.7297Z" fill="#0D3B50"/>
<path d="M118.954 23.9988V0.00976562H123.795V23.9988H118.954Z" fill="#0D3B50"/>
<path d="M146.324 4.73054H138.822V23.9988H133.842V4.73054H126.34V0.00976562H146.324V4.73054H146.324Z" fill="#0D3B50"/>
<path d="M23.9213 10.746H19.3326C19.3333 10.7508 19.3346 10.7556 19.3353 10.7611H11.4667V14.3441H19.0726C18.0963 17.3154 15.296 19.461 11.9942 19.461C7.88096 19.461 4.54631 16.1311 4.54631 12.0234C4.54631 7.91561 7.88096 4.58576 11.9942 4.58576C14.3655 4.58576 16.4776 5.69275 17.8418 7.41617C17.8432 7.41754 17.8445 7.41959 17.8459 7.42096H23.0716C21.2654 3.09016 16.9866 0.0449219 11.9949 0.0449219C5.37074 0.0449219 0 5.40745 0 12.0227C0 18.6379 5.37005 24.0005 11.9949 24.0005C17.824 24.0005 22.6823 19.8475 23.7646 14.3427C23.8748 13.7851 23.9453 13.2138 23.9747 12.6309V11.4131C23.9637 11.1935 23.9473 10.9759 23.9241 10.759C23.9241 10.7542 23.9227 10.7494 23.9227 10.744L23.9213 10.746Z" fill="#0D3B50"/>
<path d="M171.651 0.00976562L162.571 18.1225L162.58 23.9988H157.778L157.78 18.1225L148.682 0.00976562H153.935L160.167 13.8095L160.17 13.8156L160.172 13.8095L166.398 0.00976562H171.651Z" fill="#0D3B50"/>
<path d="M50.5645 12.004C50.5645 18.6281 45.1945 23.9981 38.5704 23.9981C31.9462 23.9981 26.5762 18.6281 26.5762 12.004C26.5762 5.37982 31.9462 0.00976562 38.5704 0.00976562C45.1945 0.00976562 50.5645 5.37982 50.5645 12.004ZM31.1225 12.004C31.1225 16.1172 34.4571 19.4518 38.5704 19.4518C42.6836 19.4518 46.0182 16.1172 46.0182 12.004C46.0182 7.89072 42.6836 4.55608 38.5704 4.55608C34.4571 4.55608 31.1225 7.89072 31.1225 12.004V12.004Z" fill="#0D3B50"/>
<path d="M60.4537 0.0234491H58.3273V0.00976562H53.4697V23.9988H58.3273V18.7246H60.4537C66.8617 18.7246 70.8716 15.147 70.8716 9.39248C70.8716 3.63792 66.8617 0.0234491 60.4537 0.0234491V0.0234491ZM60.4524 14.3377H58.3273V4.39803H60.4524C63.8452 4.39803 66.6215 6.56138 66.6215 9.40205C66.6215 12.2427 63.8445 14.3377 60.4524 14.3377Z" fill="#0D3B50"/>
<path d="M111.855 17.213L111.302 16.2696C113.159 14.6529 114.196 12.2863 114.201 9.3485C114.209 3.59805 110.207 0.0164202 103.803 0.00684186L98.9737 0V0.0150518L96.8227 0.011631L96.7871 23.9856L101.642 23.9932L101.65 18.6936L103.775 18.697C104.879 18.6984 105.911 18.5937 106.865 18.3898L107.155 18.8851L107.397 19.2991L107.977 20.2897L110.146 23.9918L115.829 24L111.855 17.2137V17.213ZM103.78 14.3245L101.656 14.321L101.658 12.8617L101.67 4.53947V4.38827L103.794 4.39169C107.185 4.39648 109.957 6.53177 109.953 9.33345C109.948 12.1728 107.17 14.3299 103.779 14.3252L103.78 14.3245Z" fill="#0D3B50"/>
</svg>
